<svg id="visual" viewBox="0 0 900 900" width="900" height="900" xmlns="http://www.w3.org/2000/svg"
    xmlns:xlink="http://www.w3.org/1999/xlink" version="1.1">
    <g stroke-width="1" stroke-linejoin="bevel">
        <path d="M482 447L514.5 458L477 363.5Z" fill="#1e1e1e" stroke="#1e1e1e"></path>
        <path d="M514.5 458L609 410.5L477 363.5Z" fill="#090909" stroke="#090909"></path>
        <path d="M482 447L542.5 536.5L514.5 458Z" fill="#191919" stroke="#191919"></path>
        <path d="M514.5 458L542.5 536.5L609 410.5Z" fill="#1c1c1c" stroke="#1c1c1c"></path>
        <path d="M609 410.5L624.5 279.5L477 363.5Z" fill="#212121" stroke="#212121"></path>
        <path d="M374.5 238L338.5 375.5L477 363.5Z" fill="#090909" stroke="#090909"></path>
        <path d="M477 363.5L338.5 375.5L482 447Z" fill="#050505" stroke="#050505"></path>
        <path d="M445 611.5L553.5 615L542.5 536.5Z" fill="#191919" stroke="#191919"></path>
        <path d="M542.5 536.5L692 458L609 410.5Z" fill="#000000" stroke="#000000"></path>
        <path d="M609 410.5L692 458L624.5 279.5Z" fill="#212121" stroke="#212121"></path>
        <path d="M624.5 279.5L492 213L477 363.5Z" fill="#141414" stroke="#141414"></path>
        <path d="M624.5 279.5L542.5 194L492 213Z" fill="#1e1e1e" stroke="#1e1e1e"></path>
        <path d="M445 611.5L542.5 536.5L482 447Z" fill="#171717" stroke="#171717"></path>
        <path d="M542.5 536.5L667 565.5L692 458Z" fill="#1c1c1c" stroke="#1c1c1c"></path>
        <path d="M410.5 163.5L374.5 238L492 213Z" fill="#141414" stroke="#141414"></path>
        <path d="M492 213L374.5 238L477 363.5Z" fill="#000000" stroke="#000000"></path>
        <path d="M335.5 571.5L445 611.5L482 447Z" fill="#141414" stroke="#141414"></path>
        <path d="M553.5 615L667 565.5L542.5 536.5Z" fill="#1e1e1e" stroke="#1e1e1e"></path>
        <path d="M667 565.5L738.5 456L692 458Z" fill="#050505" stroke="#050505"></path>
        <path d="M692 458L738.5 456L624.5 279.5Z" fill="#050505" stroke="#050505"></path>
        <path d="M222 393.5L278 442L338.5 375.5Z" fill="#1e1e1e" stroke="#1e1e1e"></path>
        <path d="M338.5 375.5L278 442L482 447Z" fill="#090909" stroke="#090909"></path>
        <path d="M278 442L335.5 571.5L482 447Z" fill="#212121" stroke="#212121"></path>
        <path d="M278 442L270.5 478L335.5 571.5Z" fill="#171717" stroke="#171717"></path>
        <path d="M738.5 456L712 236L624.5 279.5Z" fill="#111111" stroke="#111111"></path>
        <path d="M624.5 279.5L712 236L542.5 194Z" fill="#191919" stroke="#191919"></path>
        <path d="M620.5 57.5L493 143.5L542.5 194Z" fill="#191919" stroke="#191919"></path>
        <path d="M542.5 194L493 143.5L492 213Z" fill="#090909" stroke="#090909"></path>
        <path d="M493 143.5L410.5 163.5L492 213Z" fill="#000000" stroke="#000000"></path>
        <path d="M179.5 604.5L363.5 640L335.5 571.5Z" fill="#1e1e1e" stroke="#1e1e1e"></path>
        <path d="M335.5 571.5L363.5 640L445 611.5Z" fill="#171717" stroke="#171717"></path>
        <path d="M445 611.5L441 713L553.5 615Z" fill="#141414" stroke="#141414"></path>
        <path d="M278 442L242 497.5L270.5 478Z" fill="#171717" stroke="#171717"></path>
        <path d="M270.5 478L242 497.5L335.5 571.5Z" fill="#171717" stroke="#171717"></path>
        <path d="M222 393.5L242 497.5L278 442Z" fill="#000000" stroke="#000000"></path>
        <path d="M222 393.5L338.5 375.5L151 262Z" fill="#212121" stroke="#212121"></path>
        <path d="M151 262L338.5 375.5L374.5 238Z" fill="#171717" stroke="#171717"></path>
        <path d="M761.5 624L782.5 574.5L667 565.5Z" fill="#000000" stroke="#000000"></path>
        <path d="M667 565.5L782.5 574.5L738.5 456Z" fill="#171717" stroke="#171717"></path>
        <path d="M847.5 206L746 162.5L712 236Z" fill="#050505" stroke="#050505"></path>
        <path d="M363.5 640L441 713L445 611.5Z" fill="#191919" stroke="#191919"></path>
        <path d="M718 718L761.5 624L667 565.5Z" fill="#212121" stroke="#212121"></path>
        <path d="M718 718L667 565.5L553.5 615Z" fill="#000000" stroke="#000000"></path>
        <path d="M851.5 366.5L712 236L738.5 456Z" fill="#1c1c1c" stroke="#1c1c1c"></path>
        <path d="M712 236L620.5 57.5L542.5 194Z" fill="#1c1c1c" stroke="#1c1c1c"></path>
        <path d="M900 397L851.5 366.5L738.5 456Z" fill="#111111" stroke="#111111"></path>
        <path d="M746 162.5L620.5 57.5L712 236Z" fill="#0d0d0d" stroke="#0d0d0d"></path>
        <path d="M493 143.5L423 0L410.5 163.5Z" fill="#171717" stroke="#171717"></path>
        <path d="M558.5 798.5L718 718L553.5 615Z" fill="#1c1c1c" stroke="#1c1c1c"></path>
        <path d="M900 537.5L900 397L738.5 456Z" fill="#090909" stroke="#090909"></path>
        <path d="M851.5 366.5L847.5 206L712 236Z" fill="#0d0d0d" stroke="#0d0d0d"></path>
        <path d="M900 537.5L738.5 456L782.5 574.5Z" fill="#050505" stroke="#050505"></path>
        <path d="M900 537.5L782.5 574.5L900 686Z" fill="#141414" stroke="#141414"></path>
        <path d="M900 289.5L847.5 206L851.5 366.5Z" fill="#191919" stroke="#191919"></path>
        <path d="M746 162.5L752.5 67.5L620.5 57.5Z" fill="#111111" stroke="#111111"></path>
        <path d="M281 46.5L151 262L374.5 238Z" fill="#000000" stroke="#000000"></path>
        <path d="M155 614L179.5 604.5L91.5 436Z" fill="#1e1e1e" stroke="#1e1e1e"></path>
        <path d="M281 46.5L374.5 238L410.5 163.5Z" fill="#111111" stroke="#111111"></path>
        <path d="M179.5 604.5L242 497.5L91.5 436Z" fill="#1e1e1e" stroke="#1e1e1e"></path>
        <path d="M242 497.5L179.5 604.5L335.5 571.5Z" fill="#090909" stroke="#090909"></path>
        <path d="M363.5 640L372.5 774.5L441 713Z" fill="#000000" stroke="#000000"></path>
        <path d="M298 795.5L372.5 774.5L363.5 640Z" fill="#1c1c1c" stroke="#1c1c1c"></path>
        <path d="M441 713L558.5 798.5L553.5 615Z" fill="#141414" stroke="#141414"></path>
        <path d="M450 799.5L558.5 798.5L441 713Z" fill="#212121" stroke="#212121"></path>
        <path d="M900 397L900 289.5L851.5 366.5Z" fill="#1e1e1e" stroke="#1e1e1e"></path>
        <path d="M372.5 774.5L450 799.5L441 713Z" fill="#000000" stroke="#000000"></path>
        <path d="M620.5 57.5L518.5 0L493 143.5Z" fill="#171717" stroke="#171717"></path>
        <path d="M558.5 798.5L714 756.5L718 718Z" fill="#000000" stroke="#000000"></path>
        <path d="M900 715.5L900 686L761.5 624Z" fill="#171717" stroke="#171717"></path>
        <path d="M714 756.5L723.5 751.5L718 718Z" fill="#000000" stroke="#000000"></path>
        <path d="M900 686L782.5 574.5L761.5 624Z" fill="#212121" stroke="#212121"></path>
        <path d="M900 102.5L752.5 67.5L746 162.5Z" fill="#191919" stroke="#191919"></path>
        <path d="M620.5 57.5L630 0L518.5 0Z" fill="#171717" stroke="#171717"></path>
        <path d="M518.5 0L423 0L493 143.5Z" fill="#0d0d0d" stroke="#0d0d0d"></path>
        <path d="M91.5 436L242 497.5L222 393.5Z" fill="#090909" stroke="#090909"></path>
        <path d="M179.5 604.5L298 795.5L363.5 640Z" fill="#212121" stroke="#212121"></path>
        <path d="M423 0L404.5 0L410.5 163.5Z" fill="#090909" stroke="#090909"></path>
        <path d="M741.5 0L630 0L620.5 57.5Z" fill="#050505" stroke="#050505"></path>
        <path d="M151 262L91.5 436L222 393.5Z" fill="#0d0d0d" stroke="#0d0d0d"></path>
        <path d="M847.5 206L900 102.5L746 162.5Z" fill="#000000" stroke="#000000"></path>
        <path d="M900 289.5L900 223L847.5 206Z" fill="#212121" stroke="#212121"></path>
        <path d="M404.5 0L281 46.5L410.5 163.5Z" fill="#090909" stroke="#090909"></path>
        <path d="M155 614L298 795.5L179.5 604.5Z" fill="#1c1c1c" stroke="#1c1c1c"></path>
        <path d="M372.5 774.5L409 900L450 799.5Z" fill="#050505" stroke="#050505"></path>
        <path d="M0 491.5L123.5 638L155 614Z" fill="#000000" stroke="#000000"></path>
        <path d="M155 614L123.5 638L298 795.5Z" fill="#111111" stroke="#111111"></path>
        <path d="M900 0L741.5 0L752.5 67.5Z" fill="#1c1c1c" stroke="#1c1c1c"></path>
        <path d="M752.5 67.5L741.5 0L620.5 57.5Z" fill="#141414" stroke="#141414"></path>
        <path d="M106.5 165L67.5 284.5L151 262Z" fill="#090909" stroke="#090909"></path>
        <path d="M151 262L67.5 284.5L91.5 436Z" fill="#000000" stroke="#000000"></path>
        <path d="M404.5 0L287 0L281 46.5Z" fill="#111111" stroke="#111111"></path>
        <path d="M281 46.5L106.5 165L151 262Z" fill="#191919" stroke="#191919"></path>
        <path d="M169.5 0L106.5 165L281 46.5Z" fill="#1e1e1e" stroke="#1e1e1e"></path>
        <path d="M900 715.5L718 718L723.5 751.5Z" fill="#141414" stroke="#141414"></path>
        <path d="M900 715.5L761.5 624L718 718Z" fill="#111111" stroke="#111111"></path>
        <path d="M900 223L900 102.5L847.5 206Z" fill="#000000" stroke="#000000"></path>
        <path d="M729 900L723.5 751.5L714 756.5Z" fill="#0d0d0d" stroke="#0d0d0d"></path>
        <path d="M791.5 900L900 715.5L723.5 751.5Z" fill="#000000" stroke="#000000"></path>
        <path d="M450 799.5L521.5 900L558.5 798.5Z" fill="#191919" stroke="#191919"></path>
        <path d="M558.5 798.5L729 900L714 756.5Z" fill="#000000" stroke="#000000"></path>
        <path d="M409 900L521.5 900L450 799.5Z" fill="#111111" stroke="#111111"></path>
        <path d="M370.5 900L372.5 774.5L298 795.5Z" fill="#0d0d0d" stroke="#0d0d0d"></path>
        <path d="M370.5 900L409 900L372.5 774.5Z" fill="#171717" stroke="#171717"></path>
        <path d="M0 284L0 399.5L67.5 284.5Z" fill="#111111" stroke="#111111"></path>
        <path d="M67.5 284.5L0 399.5L91.5 436Z" fill="#141414" stroke="#141414"></path>
        <path d="M91.5 436L0 491.5L155 614Z" fill="#050505" stroke="#050505"></path>
        <path d="M0 399.5L0 411L91.5 436Z" fill="#171717" stroke="#171717"></path>
        <path d="M190 900L370.5 900L298 795.5Z" fill="#090909" stroke="#090909"></path>
        <path d="M0 411L0 491.5L91.5 436Z" fill="#000000" stroke="#000000"></path>
        <path d="M106.5 165L0 284L67.5 284.5Z" fill="#1c1c1c" stroke="#1c1c1c"></path>
        <path d="M287 0L169.5 0L281 46.5Z" fill="#141414" stroke="#141414"></path>
        <path d="M106.5 165L0 99.5L0 284Z" fill="#111111" stroke="#111111"></path>
        <path d="M521.5 900L729 900L558.5 798.5Z" fill="#000000" stroke="#000000"></path>
        <path d="M900 102.5L900 0L752.5 67.5Z" fill="#191919" stroke="#191919"></path>
        <path d="M169.5 0L56.5 67.5L106.5 165Z" fill="#0d0d0d" stroke="#0d0d0d"></path>
        <path d="M729 900L791.5 900L723.5 751.5Z" fill="#050505" stroke="#050505"></path>
        <path d="M0 491.5L0 650L123.5 638Z" fill="#0d0d0d" stroke="#0d0d0d"></path>
        <path d="M176.5 900L190 900L298 795.5Z" fill="#191919" stroke="#191919"></path>
        <path d="M176.5 900L298 795.5L39.5 805.5Z" fill="#171717" stroke="#171717"></path>
        <path d="M0 0L0 99.5L56.5 67.5Z" fill="#141414" stroke="#141414"></path>
        <path d="M56.5 67.5L0 99.5L106.5 165Z" fill="#212121" stroke="#212121"></path>
        <path d="M39.5 805.5L298 795.5L123.5 638Z" fill="#111111" stroke="#111111"></path>
        <path d="M0 650L39.5 805.5L123.5 638Z" fill="#111111" stroke="#111111"></path>
        <path d="M791.5 900L900 900L900 715.5Z" fill="#212121" stroke="#212121"></path>
        <path d="M169.5 0L0 0L56.5 67.5Z" fill="#191919" stroke="#191919"></path>
        <path d="M0 650L0 859.5L39.5 805.5Z" fill="#090909" stroke="#090909"></path>
        <path d="M39.5 805.5L0 900L176.5 900Z" fill="#1e1e1e" stroke="#1e1e1e"></path>
        <path d="M0 859.5L0 900L39.5 805.5Z" fill="#0d0d0d" stroke="#0d0d0d"></path>
    </g>
</svg>